<?xml version="1.0" encoding="UTF-8" standalone="no"?>
<!-- Created with Inkscape (http://www.inkscape.org/) -->

<svg
   xmlns:dc="http://purl.org/dc/elements/1.1/"
   xmlns:cc="http://creativecommons.org/ns#"
   xmlns:rdf="http://www.w3.org/1999/02/22-rdf-syntax-ns#"
   xmlns:svg="http://www.w3.org/2000/svg"
   xmlns="http://www.w3.org/2000/svg"
   xmlns:sodipodi="http://sodipodi.sourceforge.net/DTD/sodipodi-0.dtd"
   xmlns:inkscape="http://www.inkscape.org/namespaces/inkscape"
   width="256"
   height="256"
   viewBox="0 0 67.733332 67.733336"
   version="1.1"
   id="svg8"
   inkscape:version="0.92.3 (2405546, 2018-03-11)"
   sodipodi:docname="QuickConversions(cleaned).svg"
   inkscape:export-filename="/home/kubuntu/Pictures/Icons/QuickConversions.png"
   inkscape:export-xdpi="96"
   inkscape:export-ydpi="96">
  <defs
     id="defs2" />
  <sodipodi:namedview
     id="base"
     pagecolor="#ffffff"
     bordercolor="#666666"
     borderopacity="1.0"
     inkscape:pageopacity="0.0"
     inkscape:pageshadow="2"
     inkscape:zoom="1.4"
     inkscape:cx="-58.053222"
     inkscape:cy="39.75275"
     inkscape:document-units="px"
     inkscape:current-layer="layer1"
     showgrid="false"
     units="px"
     inkscape:window-width="1600"
     inkscape:window-height="841"
     inkscape:window-x="0"
     inkscape:window-y="0"
     inkscape:window-maximized="1" />
  <metadata
     id="metadata5">
    <rdf:RDF>
      <cc:Work
         rdf:about="">
        <dc:format>image/svg+xml</dc:format>
        <dc:type
           rdf:resource="http://purl.org/dc/dcmitype/StillImage" />
        <dc:title />
      </cc:Work>
    </rdf:RDF>
  </metadata>
  <g
     inkscape:label="Layer 1"
     inkscape:groupmode="layer"
     id="layer1"
     transform="translate(0,-229.26665)">
    <rect
       style="fill:#800080;fill-opacity:1;stroke:none;stroke-width:2.2828269;stroke-miterlimit:4;stroke-dasharray:none;stroke-opacity:1"
       id="rect815"
       width="67.733337"
       height="67.733337"
       x="-1.7011719e-06"
       y="229.26665" />
    <g
       id="g945"
       transform="matrix(0.87201019,0,0,1.1449191,13.058512,-36.227451)">
      <rect
         transform="matrix(-0.00140436,-0.99999901,0.99999943,-0.001071,0,0)"
         y="46.201801"
         x="-282.35788"
         height="8.530158"
         width="41.669289"
         id="rect848"
         style="fill:#ffdd55;fill-opacity:1;stroke:#000000;stroke-width:0.5291667;stroke-miterlimit:4;stroke-dasharray:none;stroke-opacity:1" />
      <path
         inkscape:connector-curvature="0"
         id="path868"
         d="M 46.510631,246.01653 H 49.58423"
         style="fill:none;stroke:#000000;stroke-width:0.26458335px;stroke-linecap:butt;stroke-linejoin:miter;stroke-opacity:1" />
      <path
         style="fill:none;stroke:#000000;stroke-width:0.26458335px;stroke-linecap:butt;stroke-linejoin:miter;stroke-opacity:1"
         d="m 46.73876,243.69642 h 3.073599"
         id="path872"
         inkscape:connector-curvature="0" />
      <path
         style="fill:none;stroke:#000000;stroke-width:0.26458335px;stroke-linecap:butt;stroke-linejoin:miter;stroke-opacity:1"
         d="m 46.571716,248.42719 h 3.073599"
         id="path874"
         inkscape:connector-curvature="0" />
      <path
         inkscape:connector-curvature="0"
         id="path876"
         d="m 46.638533,250.98247 h 3.073599"
         style="fill:none;stroke:#000000;stroke-width:0.26458335px;stroke-linecap:butt;stroke-linejoin:miter;stroke-opacity:1" />
      <path
         style="fill:none;stroke:#000000;stroke-width:0.26458335px;stroke-linecap:butt;stroke-linejoin:miter;stroke-opacity:1"
         d="m 46.677675,253.89901 5.428911,-0.0501"
         id="path878"
         inkscape:connector-curvature="0" />
      <path
         style="fill:none;stroke:#000000;stroke-width:0.26458335px;stroke-linecap:butt;stroke-linejoin:miter;stroke-opacity:1"
         d="m 46.605125,258.67873 h 3.073599"
         id="path880"
         inkscape:connector-curvature="0" />
      <path
         inkscape:connector-curvature="0"
         id="path882"
         d="m 46.833254,256.35862 h 3.073599"
         style="fill:none;stroke:#000000;stroke-width:0.26458335px;stroke-linecap:butt;stroke-linejoin:miter;stroke-opacity:1" />
      <path
         inkscape:connector-curvature="0"
         id="path884"
         d="m 46.66621,261.08939 h 3.073599"
         style="fill:none;stroke:#000000;stroke-width:0.26458335px;stroke-linecap:butt;stroke-linejoin:miter;stroke-opacity:1" />
      <path
         style="fill:none;stroke:#000000;stroke-width:0.26458335px;stroke-linecap:butt;stroke-linejoin:miter;stroke-opacity:1"
         d="m 46.733027,263.64467 h 3.073599"
         id="path886"
         inkscape:connector-curvature="0" />
      <path
         inkscape:connector-curvature="0"
         id="path888"
         d="m 46.772169,266.56121 5.428911,-0.0501"
         style="fill:none;stroke:#000000;stroke-width:0.26458335px;stroke-linecap:butt;stroke-linejoin:miter;stroke-opacity:1" />
      <path
         inkscape:connector-curvature="0"
         id="path890"
         d="m 46.605125,271.34093 h 3.073599"
         style="fill:none;stroke:#000000;stroke-width:0.26458335px;stroke-linecap:butt;stroke-linejoin:miter;stroke-opacity:1" />
      <path
         style="fill:none;stroke:#000000;stroke-width:0.26458335px;stroke-linecap:butt;stroke-linejoin:miter;stroke-opacity:1"
         d="m 46.833254,269.02082 h 3.073599"
         id="path892"
         inkscape:connector-curvature="0" />
      <path
         style="fill:none;stroke:#000000;stroke-width:0.26458335px;stroke-linecap:butt;stroke-linejoin:miter;stroke-opacity:1"
         d="m 46.66621,273.75159 h 3.073599"
         id="path894"
         inkscape:connector-curvature="0" />
      <path
         inkscape:connector-curvature="0"
         id="path896"
         d="m 46.733027,276.30687 h 3.073599"
         style="fill:none;stroke:#000000;stroke-width:0.26458335px;stroke-linecap:butt;stroke-linejoin:miter;stroke-opacity:1" />
      <path
         style="fill:none;stroke:#000000;stroke-width:0.26458335px;stroke-linecap:butt;stroke-linejoin:miter;stroke-opacity:1"
         d="m 46.772169,279.22341 5.428911,-0.0501"
         id="path898"
         inkscape:connector-curvature="0" />
    </g>
    <g
       id="g962"
       transform="matrix(1.0576357,0,0,1.1102185,-1.953149,-27.981293)"
       style="stroke:#000000;stroke-opacity:1">
      <path
         style="fill:#000000;fill-opacity:1;stroke:#000000;stroke-width:0.65056032;stroke-miterlimit:4;stroke-dasharray:none;stroke-opacity:1"
         d="m 31.642046,253.52254 4.32712,0.16428 5.809879,-0.0412 4.635296,7.06955 v 16.84487 H 21.3213 V 260.599 l 4.859854,-6.83717 z"
         id="path915"
         inkscape:connector-curvature="0"
         sodipodi:nodetypes="ccccccccc" />
      <ellipse
         style="fill:#000000;fill-opacity:0;stroke:#000000;stroke-width:1.62640071;stroke-miterlimit:4;stroke-dasharray:none;stroke-opacity:1"
         id="ellipse917"
         cx="33.867817"
         cy="250.43402"
         rx="3.4270589"
         ry="3.0785446" />
      <text
         xml:space="preserve"
         style="font-style:normal;font-weight:normal;font-size:13.01120663px;line-height:1.25;font-family:sans-serif;letter-spacing:0px;word-spacing:0px;fill:#feffff;fill-opacity:1;stroke:#000000;stroke-width:0.32528016;stroke-opacity:1"
         x="25.514862"
         y="270.47363"
         id="text921"><tspan
           sodipodi:role="line"
           id="tspan919"
           x="25.514862"
           y="270.47363"
           style="fill:#feffff;fill-opacity:1;stroke:#000000;stroke-width:0.32528016;stroke-opacity:1">Kg</tspan></text>
    </g>
    <rect
       style="fill:#ffffff;fill-opacity:0.1254902;stroke:none;stroke-width:1.38782299;stroke-miterlimit:4;stroke-dasharray:none;stroke-opacity:1"
       id="rect817"
       width="33.866669"
       height="67.733337"
       x="33.866669"
       y="229.26665" />
    <g
       id="g899"
       transform="matrix(1.3928009,0,0,1.3928009,-9.4401022,-106.49097)">
      <g
         id="g893">
        <path
           style="color:#000000;font-style:normal;font-variant:normal;font-weight:normal;font-stretch:normal;font-size:medium;line-height:normal;font-family:sans-serif;font-variant-ligatures:normal;font-variant-position:normal;font-variant-caps:normal;font-variant-numeric:normal;font-variant-alternates:normal;font-feature-settings:normal;text-indent:0;text-align:start;text-decoration:none;text-decoration-line:none;text-decoration-style:solid;text-decoration-color:#000000;letter-spacing:normal;word-spacing:normal;text-transform:none;writing-mode:lr-tb;direction:ltr;text-orientation:mixed;dominant-baseline:auto;baseline-shift:baseline;text-anchor:start;white-space:normal;shape-padding:0;clip-rule:nonzero;display:inline;overflow:visible;visibility:visible;opacity:1;isolation:auto;mix-blend-mode:normal;color-interpolation:sRGB;color-interpolation-filters:linearRGB;solid-color:#000000;solid-opacity:1;vector-effect:none;fill:#000000;fill-opacity:1;fill-rule:nonzero;stroke:none;stroke-width:0.5696246;stroke-linecap:butt;stroke-linejoin:miter;stroke-miterlimit:4;stroke-dasharray:none;stroke-dashoffset:0;stroke-opacity:1;color-rendering:auto;image-rendering:auto;shape-rendering:auto;text-rendering:auto;enable-background:accumulate"
           d="m 14.512452,247.71242 c -0.162161,0 -0.724585,0.0933 -0.792014,0.46019 -0.128881,0.70131 -0.06276,29.94594 -0.213138,29.99943 -1.032911,0.36739 -1.398465,1.16384 -1.398464,2.28596 -1e-6,1.44224 1.228534,2.60352 2.720703,2.60352 1.492169,0 2.722656,-1.16128 2.722656,-2.60352 0,-1.07202 -0.360923,-1.9652 -1.322745,-2.36523 -0.172813,-0.0719 -0.13283,-29.38448 -0.361659,-29.94164 -0.205146,-0.49949 -0.519756,-0.44836 -0.7035,-0.44624 z m 0.597855,0.43286 c 0.180379,0 0.349255,0.26672 0.516091,0.30572 0.177115,0.0414 0.0704,30.13681 0.226659,30.21647 0.675158,0.34416 1.128814,1.01877 1.128814,1.79058 0,1.11871 -0.953102,2.03516 -2.152346,2.03516 -1.199244,0 -2.150391,-0.91645 -2.15039,-2.03516 -1e-6,-0.8017 0.488468,-1.49852 1.206663,-1.82906 0.152765,-0.0703 -0.08175,-30.13104 0.08928,-30.16569 0.14694,-0.0298 0.387664,-0.33483 0.544609,-0.32978 z"
           id="path885"
           inkscape:connector-curvature="0"
           sodipodi:nodetypes="csscsssssccssscssscc" />
        <path
           style="fill:#f7f5f4;fill-opacity:1;stroke:#000000;stroke-width:0.50507629;stroke-miterlimit:4;stroke-dasharray:none;stroke-opacity:1"
           d="m 53.017398,200.53743 c -1.56389,-0.5743 -3.665501,-2.59885 -4.350356,-4.19084 -0.793682,-1.84496 -0.772285,-3.99467 0.05781,-5.80783 0.660527,-1.44278 2.095846,-3.02463 3.320618,-3.65963 l 0.728491,-0.37769 -0.172202,-72.1387 c -0.140565,-58.884898 -0.04089,-40.427934 -0.05295,-41.485926 -0.03597,-3.155646 6.447277,-3.095268 6.613596,0.06 l 0.03777,0.716541 -0.01497,0.689559 c -0.0972,4.477213 0.459443,25.558595 0.47179,40.293446 0.01235,14.73484 -0.263103,21.92337 -0.16889,39.68669 l 0.171294,32.29696 0.621036,0.40673 c 1.304325,0.85423 2.201408,1.80809 2.919354,3.10413 0.6515,1.17609 0.743535,1.59458 0.739708,3.36352 -0.0035,1.60051 -0.121851,2.24185 -0.569761,3.08657 -0.843469,1.59069 -1.886876,2.66377 -3.385956,3.48225 -1.156716,0.63156 -1.658784,0.74286 -3.616056,0.80165 -1.583928,0.0476 -2.599441,-0.0517 -3.350341,-0.32743 z"
           id="path891"
           inkscape:connector-curvature="0"
           transform="matrix(0.26458334,0,0,0.26458334,0,229.26665)"
           sodipodi:nodetypes="cccccssscssscsscccccc" />
      </g>
      <rect
         y="255.37283"
         x="14.449145"
         height="23.57486"
         width="0.70678949"
         id="rect895"
         style="fill:#f72224;fill-opacity:1;stroke:none;stroke-width:0.10101306;stroke-miterlimit:4;stroke-dasharray:none;stroke-opacity:1" />
      <ellipse
         ry="1.4699824"
         rx="1.3912092"
         cy="280.32904"
         cx="14.850163"
         id="ellipse897"
         style="fill:#f72224;fill-opacity:1;stroke:none;stroke-width:0.22765006;stroke-miterlimit:4;stroke-dasharray:none;stroke-opacity:1" />
    </g>
  </g>
</svg>
